<?xml version="1.0" encoding="UTF-8"?>
<svg id="Laag_1" data-name="Laag 1" xmlns="http://www.w3.org/2000/svg" viewBox="0 0 155.66 155.66">
  <defs>
    <style>
      .cls-1 {
        fill: #346c87;
        stroke: #fff;
        stroke-miterlimit: 10;
        stroke-width: 2px;
      }
    </style>
  </defs>
  <path class="cls-1" d="M77.83,1C35.4,1,1,35.4,1,77.83s34.4,76.83,76.83,76.83,76.83-34.4,76.83-76.83S120.26,1,77.83,1ZM96.44,98.43c-.06-.02-.12-.04-.18-.06-1.9-.92-3.97-1.39-6.19-1.39s-4.29.46-6.2,1.39c-1.91.76-3.97,1.23-6.04,1.23-2.22,0-4.28-.46-6.03-1.23-1.91-.92-4.13-1.39-6.36-1.39-2.06,0-4.29.46-6.19,1.39-.02,0-.03.01-.05.02-1.24-1.5-2.33-3.16-3.2-4.98l45.37-15.95c1.79,7.55-.22,15.28-4.94,20.97ZM70.27,36.67c3.65-3.66,6.97.14,9.33-3.09,2.36-3.23,6.95-10.47,6.95-10.47l5.24,17.97s-1.44,3.9-4.71,6.45c-3.28,2.56-5.71.07-9.7.69-3.99.62-5.51,6.57-5.51,6.57,0,0-6.89-12.82-1.59-18.13ZM67.72,61.02l-5.85-15.94c-.3-.82.12-1.73.94-2.03.82-.3,1.73.12,2.03.94l5.84,15.92c11.48-3.56,23.74,1.86,28.9,12.52l-45.32,15.94c-2.54-11.11,3.06-22.58,13.46-27.35ZM126.92,114.54c-2.23,0-4.29-.46-6.2-1.22-1.74-.92-3.97-1.39-6.2-1.39s-4.29.46-6.2,1.39c-1.74.77-3.81,1.22-6.03,1.22-2.06,0-4.13-.46-6.04-1.22-1.9-.92-3.97-1.39-6.19-1.39s-4.29.46-6.2,1.39c-1.9.77-3.97,1.22-6.04,1.22-2.22,0-4.28-.46-6.03-1.22-1.91-.92-4.13-1.39-6.36-1.39-2.06,0-4.29.46-6.19,1.39-1.75.77-3.81,1.22-6.04,1.22-2.07,0-4.13-.46-6.03-1.22-1.91-.92-3.98-1.39-6.2-1.39s-4.29.46-6.2,1.39c-1.9.77-3.97,1.22-6.04,1.22v-8.74c2.07,0,4.13-.46,6.04-1.23,1.91-.92,3.97-1.38,6.2-1.38s4.29.45,6.2,1.38c1.9.77,3.97,1.23,6.03,1.23,2.22,0,4.29-.46,6.04-1.23,1.91-.92,4.14-1.38,6.19-1.38,2.22,0,4.45.45,6.36,1.38,1.75.77,3.81,1.23,6.03,1.23,2.07,0,4.13-.46,6.04-1.23,1.91-.92,3.98-1.38,6.2-1.38s4.29.45,6.19,1.38c1.91.77,3.98,1.23,6.04,1.23,2.22,0,4.29-.46,6.03-1.23,1.91-.92,3.97-1.38,6.2-1.38s4.45.45,6.2,1.38c1.91.77,3.97,1.23,6.2,1.23v8.74Z"/>
</svg>