<?xml version="1.0" encoding="UTF-8"?>
<svg id="Laag_1" xmlns="http://www.w3.org/2000/svg" version="1.1" viewBox="0 0 103.375 103.375">
  <!-- Generator: Adobe Illustrator 30.2.1, SVG Export Plug-In . SVG Version: 2.1.1 Build 1)  -->
  <defs>
    <style>
      .st0 {
        fill: #186d8a;
        stroke: #fff;
        stroke-miterlimit: 10;
        stroke-width: 1.328px;
      }
    </style>
  </defs>
  <path class="st0" d="M51.688.664C23.508.664.664,23.508.664,51.688s22.844,51.024,51.024,51.024,51.024-22.844,51.024-51.024S79.867.664,51.688.664ZM64.043,65.368c-.039-.015-.078-.026-.118-.041-1.262-.614-2.638-.922-4.113-.922s-2.85.309-4.117.922c-1.265.507-2.634.814-4.01.814-1.476,0-2.846-.307-4.007-.814-1.266-.614-2.745-.922-4.222-.922-1.366,0-2.846.309-4.112.922-.01.003-.021.007-.031.013-.823-.999-1.547-2.097-2.122-3.305l30.131-10.595c1.186,5.016-.146,10.146-3.279,13.929ZM46.667,24.354c2.424-2.433,4.627.095,6.195-2.049,1.564-2.142,4.612-6.952,4.612-6.952l3.482,11.934s-.955,2.588-3.131,4.283c-2.18,1.698-3.792.048-6.442.46-2.65.414-3.66,4.364-3.66,4.364,0,0-4.576-8.512-1.057-12.04ZM44.97,40.523l-3.883-10.588c-.2-.547.08-1.149.625-1.349.546-.2,1.15.078,1.349.624l3.878,10.575c7.623-2.365,15.767,1.238,19.191,8.314l-30.1,10.584c-1.69-7.379,2.034-14.992,8.939-18.161ZM84.288,76.069c-1.479,0-2.848-.304-4.115-.812-1.158-.614-2.638-.92-4.115-.92s-2.848.307-4.116.92c-1.156.509-2.53.812-4.006.812-1.37,0-2.743-.303-4.01-.812-1.262-.614-2.638-.92-4.113-.92s-2.85.307-4.117.92c-1.264.509-2.634.812-4.01.812-1.476,0-2.846-.303-4.007-.812-1.266-.614-2.745-.92-4.222-.92-1.367,0-2.846.307-4.112.92-1.163.509-2.533.812-4.01.812-1.371,0-2.743-.303-4.008-.812-1.269-.614-2.64-.92-4.115-.92s-2.848.307-4.117.92c-1.264.509-2.636.812-4.01.812v-5.807c1.373,0,2.745-.305,4.01-.815,1.269-.612,2.638-.913,4.117-.913s2.846.301,4.115.913c1.264.51,2.636.815,4.008.815,1.477,0,2.847-.305,4.01-.815,1.266-.612,2.746-.913,4.112-.913,1.478,0,2.957.301,4.222.913,1.162.51,2.531.815,4.007.815,1.376,0,2.745-.305,4.01-.815,1.266-.612,2.64-.913,4.117-.913s2.85.301,4.113.913c1.266.51,2.64.815,4.01.815,1.477,0,2.85-.305,4.006-.815,1.268-.612,2.64-.913,4.116-.913s2.957.301,4.115.913c1.266.51,2.636.815,4.115.815v5.807Z"/>
</svg>