<?xml version="1.0" encoding="UTF-8"?>
<svg id="Laag_1" data-name="Laag 1" xmlns="http://www.w3.org/2000/svg" viewBox="0 0 155.663 155.663">
  <defs>
    <style>
      .cls-1 {
        fill: #346c87;
        stroke: #fff;
        stroke-miterlimit: 10;
        stroke-width: 2px;
      }
    </style>
  </defs>
  <path class="cls-1" d="M77.832,1C35.399,1,1,35.399,1,77.832s34.399,76.832,76.832,76.832,76.832-34.399,76.832-76.832S120.264,1,77.832,1ZM96.437,98.431c-.059-.022-.118-.039-.177-.062-1.901-.924-3.972-1.389-6.193-1.389s-4.292.465-6.199,1.389c-1.905.763-3.966,1.225-6.038,1.225-2.223,0-4.285-.462-6.034-1.225-1.906-.924-4.133-1.389-6.358-1.389-2.057,0-4.285.465-6.192,1.389-.015.005-.031.01-.047.019-1.24-1.504-2.33-3.157-3.196-4.977l45.371-15.954c1.786,7.553-.22,15.278-4.937,20.974ZM70.272,36.672c3.65-3.663,6.967.143,9.329-3.086,2.355-3.225,6.945-10.469,6.945-10.469l5.243,17.971s-1.438,3.897-4.714,6.449c-3.283,2.557-5.71.072-9.7.693-3.991.623-5.511,6.572-5.511,6.572,0,0-6.89-12.817-1.592-18.13ZM67.716,61.02l-5.847-15.943c-.301-.823.121-1.73.941-2.031.822-.301,1.731.118,2.032.94l5.84,15.924c11.478-3.561,23.742,1.864,28.898,12.519l-45.324,15.938c-2.545-11.112,3.063-22.575,13.46-27.347ZM126.922,114.545c-2.227-.001-4.289-.457-6.196-1.222-1.743-.924-3.973-1.386-6.196-1.386s-4.289.462-6.198,1.386c-1.741.766-3.809,1.222-6.032,1.222-2.063,0-4.131-.456-6.038-1.222-1.901-.924-3.973-1.386-6.193-1.386s-4.292.462-6.199,1.386c-1.904.766-3.966,1.222-6.038,1.222-2.223,0-4.285-.456-6.034-1.222-1.907-.924-4.133-1.386-6.358-1.386-2.058,0-4.285.462-6.192,1.386-1.751.766-3.814,1.222-6.038,1.222-2.065,0-4.131-.456-6.035-1.222-1.911-.924-3.975-1.386-6.196-1.386s-4.288.462-6.199,1.386c-1.904.766-3.97,1.222-6.038,1.222v-8.744c2.068,0,4.133-.46,6.038-1.228,1.911-.922,3.973-1.375,6.199-1.375s4.286.453,6.196,1.375c1.904.768,3.97,1.228,6.035,1.228,2.224,0,4.287-.46,6.038-1.228,1.907-.922,4.135-1.375,6.192-1.375,2.225,0,4.452.453,6.358,1.375,1.749.768,3.811,1.228,6.034,1.228,2.072,0,4.133-.46,6.038-1.228,1.907-.922,3.976-1.375,6.199-1.375s4.292.453,6.193,1.375c1.907.768,3.975,1.228,6.038,1.228,2.224,0,4.291-.46,6.032-1.228,1.909-.922,3.975-1.375,6.198-1.375s4.453.453,6.196,1.375c1.907.768,3.97,1.228,6.196,1.228v8.744Z"/>
</svg>